<?xml version="1.0" standalone="no"?>
<!DOCTYPE svg PUBLIC "-//W3C//DTD SVG 20010904//EN"
 "http://www.w3.org/TR/2001/REC-SVG-20010904/DTD/svg10.dtd">
<svg version="1.0" xmlns="http://www.w3.org/2000/svg"
 width="4800.000000pt" height="4800.000000pt" viewBox="0 0 4800.000000 4800.000000"
 preserveAspectRatio="xMidYMid meet">

<g transform="translate(0.000000,4800.000000) scale(0.100000,-0.100000)"
fill="#000000" stroke="none">
<path d="M24230 35962 c0 -1 10 -6 22 -11 12 -4 -125 -11 -313 -14 -384 -8
-600 -19 -924 -48 -2463 -219 -4788 -1152 -6725 -2698 -334 -266 -618 -520
-944 -841 -320 -315 -546 -557 -788 -845 -29 -33 -9 -36 -258 30 -310 82 -416
109 -850 218 -531 134 -956 238 -1230 302 -107 24 -260 60 -340 79 -219 52
-958 217 -1280 286 -470 100 -544 115 -820 171 -146 29 -267 54 -269 56 -3 2
13 21 34 43 24 25 35 43 30 49 -10 8 -674 135 -1156 221 -849 150 -1926 311
-2609 389 -345 40 -476 54 -705 76 -143 14 -280 27 -305 30 -103 10 -583 46
-815 60 -808 48 -1654 54 -2245 16 -620 -41 -1057 -103 -1562 -223 l-178 -42
0 -242 0 -241 82 19 c264 62 690 126 1043 158 334 29 321 28 555 41 344 19
1608 15 1800 -6 19 -2 94 -6 165 -10 72 -3 155 -8 185 -10 30 -2 96 -7 145
-10 50 -3 113 -8 140 -10 28 -2 91 -7 140 -10 105 -7 372 -29 475 -40 25 -3
77 -7 115 -11 39 -3 84 -7 100 -9 17 -2 62 -6 100 -10 39 -4 81 -8 95 -10 14
-2 95 -11 180 -20 85 -8 169 -17 185 -20 17 -2 55 -7 85 -10 30 -3 66 -8 80
-10 14 -2 50 -7 80 -10 30 -3 89 -10 130 -15 41 -5 95 -12 120 -15 50 -6 111
-14 150 -20 14 -2 50 -7 80 -11 30 -3 64 -7 75 -9 11 -1 44 -6 74 -10 30 -3
63 -9 75 -11 12 -2 89 -13 171 -24 83 -11 160 -22 173 -25 20 -3 215 -32 279
-40 21 -3 83 -13 123 -20 8 -1 35 -6 60 -9 107 -16 182 -28 290 -46 63 -11
133 -22 155 -25 22 -3 51 -8 65 -10 14 -3 41 -7 60 -10 19 -3 71 -12 115 -20
44 -8 123 -21 175 -30 52 -9 129 -23 170 -31 41 -8 93 -17 115 -19 41 -5 156
-27 515 -96 113 -21 223 -41 245 -45 48 -6 743 -143 767 -150 24 -7 33 -9 273
-58 212 -43 440 -91 670 -142 326 -71 498 -109 585 -129 36 -9 97 -22 135 -31
39 -8 124 -28 190 -43 66 -16 152 -36 190 -44 199 -45 253 -58 285 -67 19 -6
94 -24 165 -40 182 -43 281 -67 680 -165 418 -103 439 -108 580 -145 61 -16
191 -49 290 -75 211 -54 247 -65 243 -73 -2 -4 -62 -86 -134 -182 -1393 -1863
-2234 -4062 -2444 -6385 -10 -121 -25 -305 -32 -410 -16 -251 -16 -1160 0
-1410 40 -600 110 -1162 210 -1677 16 -82 25 -148 20 -148 -18 0 -1474 722
-1898 941 -96 50 -256 132 -355 184 -250 129 -407 211 -493 257 -40 21 -116
62 -170 89 -92 48 -192 102 -327 174 -33 18 -96 51 -140 75 -44 23 -154 83
-245 133 -91 49 -194 105 -230 125 -118 63 -246 134 -305 167 -22 12 -65 36
-95 52 -53 29 -193 107 -275 153 -22 12 -78 44 -125 70 -47 26 -107 60 -135
75 -27 16 -67 39 -87 52 -21 12 -40 23 -43 23 -2 0 -34 18 -70 40 -36 22 -67
40 -69 40 -2 0 -55 30 -117 66 -63 36 -137 79 -166 95 -28 16 -109 63 -179
104 -71 41 -132 75 -136 75 -4 0 -8 80 -8 178 l0 177 -47 29 c-27 16 -68 40
-93 54 -25 14 -56 33 -70 42 -14 9 -45 28 -70 42 -25 14 -128 76 -230 138
-102 62 -216 131 -255 154 -72 43 -104 63 -355 219 -144 90 -466 293 -590 372
-36 23 -117 75 -180 115 -267 171 -971 643 -1210 811 -175 123 -243 171 -331
235 -53 38 -127 91 -165 118 -907 650 -1800 1390 -2456 2035 l-118 116 0 -546
0 -545 73 -63 c205 -179 487 -419 607 -517 1449 -1188 3437 -2508 5790 -3847
1637 -931 3293 -1795 5315 -2772 l190 -91 54 -200 c667 -2469 2087 -4682 4063
-6334 1827 -1528 4066 -2505 6438 -2809 580 -75 930 -96 1590 -96 553 0 699 6
1135 46 1964 178 3881 827 5545 1877 74 47 174 111 222 144 48 32 94 58 103
58 9 0 87 -21 173 -46 321 -93 545 -157 822 -235 295 -83 1111 -308 1283 -353
88 -24 173 -46 342 -91 78 -21 330 -86 520 -136 600 -156 1558 -390 2140 -524
182 -41 377 -87 435 -100 658 -153 1929 -414 2720 -559 450 -82 1155 -203
1370 -235 36 -5 184 -28 330 -50 1192 -181 2230 -294 3310 -361 506 -31 1317
-45 1777 -30 543 18 1096 69 1518 143 l130 22 3 238 c2 186 0 237 -10 237 -7
0 -60 -9 -118 -20 -246 -46 -649 -95 -1040 -124 -190 -15 -461 -26 -755 -30
-244 -3 -284 -2 -170 4 690 39 980 67 1368 130 228 37 571 112 695 151 l32 11
0 876 c0 751 -2 874 -14 862 -30 -32 -109 -159 -146 -235 -89 -184 -124 -339
-124 -550 0 -173 16 -271 70 -426 19 -56 34 -102 32 -104 -2 -1 -52 -15 -113
-30 -507 -124 -1249 -209 -1975 -225 -382 -9 -1103 -1 -1370 14 -36 3 -135 7
-220 11 -85 4 -168 8 -185 10 -16 2 -75 7 -130 10 -55 3 -125 8 -155 10 -30 2
-93 7 -140 10 -47 3 -105 8 -130 10 -25 2 -79 7 -120 10 -41 3 -86 8 -100 10
-14 2 -61 7 -105 10 -81 6 -142 11 -227 20 -27 3 -69 7 -95 10 -27 3 -73 7
-103 10 -30 3 -71 8 -90 10 -19 2 -82 9 -140 15 -58 6 -116 13 -130 15 -14 2
-54 7 -90 10 -36 4 -72 8 -80 10 -8 1 -44 6 -80 10 -36 3 -76 8 -90 10 -14 1
-50 6 -80 10 -48 5 -299 39 -675 90 -60 8 -120 17 -133 20 -12 2 -73 11 -135
20 -62 8 -121 17 -132 19 -11 2 -40 7 -65 10 -25 4 -88 14 -140 22 -52 8 -108
17 -125 20 -16 2 -41 7 -55 9 -14 3 -43 7 -65 10 -23 3 -79 12 -125 20 -47 8
-114 19 -150 25 -36 5 -105 17 -155 25 -49 9 -154 27 -233 40 -151 25 -252 44
-417 75 -55 11 -118 22 -140 25 -22 3 -107 19 -190 35 -152 30 -183 36 -243
46 -87 15 -1381 277 -1422 289 -8 2 -71 16 -140 30 -189 41 -517 113 -650 143
-47 11 -128 29 -180 41 -52 11 -104 23 -115 26 -11 2 -59 14 -107 25 -49 11
-127 29 -175 40 -49 12 -117 27 -153 36 -36 8 -81 18 -100 23 -19 5 -64 16
-100 25 -259 61 -928 224 -965 235 -16 5 -79 21 -140 35 -60 15 -119 29 -130
32 -11 3 -72 19 -135 35 -63 17 -131 34 -150 39 -19 4 -60 15 -90 23 -30 9
-127 34 -215 57 -304 79 -541 141 -660 173 -174 47 -331 90 -420 114 -49 14
-106 29 -125 33 -19 5 -60 16 -90 25 -30 10 -71 21 -90 25 -19 5 -60 16 -90
25 -30 10 -71 21 -90 25 -19 5 -60 16 -90 25 -30 10 -71 20 -90 24 -20 4 -43
12 -53 17 -15 9 -14 12 14 33 55 41 380 314 494 415 947 843 1759 1818 2410
2896 333 552 650 1184 885 1765 417 1034 686 2067 825 3170 31 249 63 593 71
776 4 77 10 138 13 137 3 -2 35 -16 71 -33 82 -38 1477 -737 1665 -834 77 -40
223 -116 325 -168 102 -53 217 -112 255 -133 107 -57 250 -132 355 -187 132
-69 281 -149 374 -200 43 -24 80 -43 82 -43 2 0 99 -52 216 -116 117 -64 242
-132 278 -152 121 -65 247 -134 305 -167 22 -12 65 -36 95 -52 53 -29 193
-107 275 -153 22 -12 78 -44 125 -70 47 -26 108 -60 135 -75 28 -16 67 -39 87
-52 21 -12 40 -23 43 -23 2 0 34 -18 70 -40 36 -22 67 -40 69 -40 2 0 53 -28
113 -63 60 -35 116 -67 124 -70 8 -4 30 -17 49 -28 19 -12 94 -55 165 -97 72
-41 169 -99 218 -129 48 -29 90 -53 93 -53 4 0 74 -41 130 -78 10 -6 26 -15
34 -19 8 -4 38 -21 65 -38 28 -17 57 -35 65 -38 8 -4 29 -16 45 -26 17 -10
122 -74 235 -143 113 -68 216 -131 230 -139 99 -62 248 -154 276 -170 19 -10
114 -69 211 -130 403 -253 588 -373 591 -381 2 -4 8 -8 13 -8 19 0 694 -447
1059 -701 559 -390 1166 -854 1685 -1288 169 -142 435 -372 510 -441 28 -26
84 -77 125 -115 109 -100 207 -193 362 -344 l138 -135 0 381 0 381 -152 129
c-846 718 -1817 1430 -3258 2388 -1714 1140 -3520 2191 -5870 3418 -387 202
-773 397 -1391 705 l-676 337 -6 315 c-8 353 -18 552 -48 875 -170 1884 -765
3707 -1737 5325 -1021 1700 -2428 3131 -4112 4182 -761 475 -1583 871 -2446
1178 -1197 427 -2615 698 -3863 738 -116 4 -211 6 -211 4z"/>
</g>
</svg>
